<svg width="125" height="125" viewBox="0 0 125 125" fill="none" xmlns="http://www.w3.org/2000/svg">
<g id="icon/archive">
<path id="Vector" d="M104.167 20.8334H20.8333C15.0804 20.8334 10.4167 25.4971 10.4167 31.25V36.4584C10.4167 42.2113 15.0804 46.875 20.8333 46.875H104.167C109.92 46.875 114.583 42.2113 114.583 36.4584V31.25C114.583 25.4971 109.92 20.8334 104.167 20.8334Z" stroke="#724733" stroke-width="6" stroke-linecap="round" stroke-linejoin="round"/>
<path id="Vector_2" d="M20.8333 46.875V93.75C20.8333 96.5127 21.9308 99.1622 23.8843 101.116C25.8378 103.069 28.4873 104.167 31.25 104.167H93.75C96.5127 104.167 99.1622 103.069 101.116 101.116C103.069 99.1622 104.167 96.5127 104.167 93.75V46.875" stroke="#724733" stroke-width="6" stroke-linecap="round" stroke-linejoin="round"/>
<path id="Vector_3" d="M52.0833 67.7084H72.9167" stroke="#724733" stroke-width="6" stroke-linecap="round" stroke-linejoin="round"/>
</g>
</svg>
